<svg width="70" height="70" viewBox="0 0 70 70" fill="none" xmlns="http://www.w3.org/2000/svg"><path d="M55.75 34.99l9.37 9.37c3.22 3.21 4.87 7.34 4.87 11.23 0 3.15-1.09 6.16-3.32 8.39l-2.7 2.69C61.8 68.83 58.87 70 55.6 70c-.4 0-.82-.03-1.24-.06-3.67-.32-7.22-2.03-10-4.81L35 55.77l-9.37 9.36c-2.77 2.78-6.33 4.49-10 4.81-.41.04-.83.06-1.24.06-3.26 0-6.2-1.17-8.37-3.33l-2.7-2.7C1.09 61.73 0 58.73 0 55.58c0-3.88 1.65-8 4.87-11.22l9.36-9.37-9.36-9.36C1.65 22.42 0 18.3 0 14.42c0-3.16 1.09-6.17 3.32-8.4l2.7-2.69C8.46.88 11.87-.28 15.63.05c3.66.33 7.21 2.03 9.99 4.82l9.37 9.37 9.36-9.37c2.78-2.79 6.33-4.49 10-4.81 3.76-.34 7.18.82 9.61 3.25l2.7 2.71c2.23 2.24 3.33 5.24 3.33 8.4 0 3.88-1.65 7.99-4.87 11.21l-9.37 9.36zM15.38 67.03c2.99-.25 5.9-1.67 8.2-3.97l29.13-29.12 10.38-10.38c2.66-2.65 4.03-6.03 4.03-9.16 0-2.41-.81-4.67-2.48-6.35l-2.71-2.69C58.09 1.5 51.12 2.2 46.43 6.9L36.01 17.31 17.29 36.02 6.91 46.4c-2.65 2.66-4.02 6.03-4.02 9.16 0 2.41.81 4.67 2.49 6.34l2.69 2.71c1.83 1.82 4.43 2.68 7.31 2.42zM8.06 5.38l-2.69 2.7c-1.67 1.67-2.49 3.93-2.49 6.34 0 3.12 1.38 6.5 4.03 9.16l9.37 9.37 16.66-16.67-9.38-9.35c-2.29-2.3-5.21-3.71-8.19-3.98-2.88-.25-5.49.61-7.31 2.43zm28.49 22.29c-.41.41-.96.62-1.49.62-.55 0-1.08-.21-1.5-.62-.39-.4-.61-.92-.61-1.49s.22-1.1.61-1.49c.83-.82 2.16-.82 2.99 0 .39.39.61.92.61 1.49v.04c0 .55-.22 1.06-.61 1.45zm.82 2.91c0-.54.2-1.08.61-1.49.82-.82 2.16-.82 2.98 0 .41.4.62.92.62 1.49s-.21 1.09-.62 1.49a2.089 2.089 0 01-2.97 0c-.42-.41-.62-.95-.62-1.49zm-5.5 1.74c-.41.42-.94.61-1.49.61-.54 0-1.08-.19-1.49-.61-.41-.41-.61-.95-.61-1.49s.2-1.08.61-1.5c.82-.81 2.16-.81 2.98 0 .41.42.62.96.62 1.5s-.21 1.08-.62 1.49zm9.84 2.61c0-.57.23-1.09.62-1.5.79-.79 2.18-.79 2.98 0 .41.42.62.94.62 1.49 0 .54-.21 1.09-.62 1.5-.39.4-.91.61-1.48.61s-1.11-.21-1.5-.61c-.39-.4-.62-.92-.62-1.49zm-9.01.31c0-.54.21-1.08.62-1.48.81-.83 2.16-.83 2.98 0 .41.4.61.94.61 1.48s-.2 1.08-.61 1.49c-.41.42-.96.62-1.49.62-.54 0-1.08-.2-1.49-.62-.41-.41-.62-.95-.62-1.49zm-8.78-.92c.4-.4.93-.62 1.49-.62.57 0 1.09.22 1.5.62a2.115 2.115 0 01-.01 2.98c-.4.41-.93.61-1.49.61-.56 0-1.09-.2-1.49-.61-.41-.41-.61-.95-.61-1.49s.2-1.08.61-1.49zM61.93 64.6l2.7-2.7c1.67-1.67 2.49-3.93 2.49-6.34 0-3.13-1.38-6.51-4.03-9.17l-9.36-9.36-16.66 16.66 9.36 9.36c2.3 2.3 5.21 3.71 8.2 3.97 2.89.26 5.48-.6 7.3-2.42zM37.04 39.59c0-.54.21-1.08.62-1.49.83-.82 2.16-.82 2.99 0 .39.39.61.94.61 1.5s-.22 1.09-.61 1.48c-.41.41-.94.62-1.49.62s-1.08-.21-1.5-.62c-.41-.41-.62-.95-.62-1.49zm-9.33.65c0-.57.22-1.09.63-1.5.79-.79 2.18-.79 2.98 0 .4.41.62.93.62 1.5s-.22 1.09-.63 1.48c-.41.42-.95.62-1.49.62-.53 0-1.08-.2-1.48-.62a2.01 2.01 0 01-.63-1.48zm4.35 4.34c0-.56.23-1.09.62-1.49.82-.82 2.16-.82 2.98 0 .41.4.62.92.62 1.49a2.102 2.102 0 01-2.1 2.11c-.57 0-1.09-.22-1.5-.61-.39-.4-.62-.94-.62-1.5z" fill="#0CB563" fill-rule="evenodd"/></svg>