<svg width="76.999603" height="70.000000" viewBox="0 0 76.9996 70" fill="none" xmlns="http://www.w3.org/2000/svg" xmlns:xlink="http://www.w3.org/1999/xlink">
	<desc>
			Created with Pixso.
	</desc>
	<defs/>
	<path id="Форма 193" d="M74.55 26.03C75.48 25.69 76.52 26.16 76.87 27.08C77.21 28.01 76.74 29.04 75.81 29.39C74.96 29.71 74.07 30.1 73.2 30.48C70.36 31.73 67.75 32.89 62.7 32.89C57.65 32.89 55.04 31.73 52.2 30.48C52.15 30.46 52.1 30.43 52.06 30.41C49.12 29.11 45.85 27.71 38.49 27.71C31.13 27.71 27.76 29.15 24.78 30.47C21.93 31.73 19.32 32.89 14.28 32.89C9.24 32.89 6.61 31.74 3.77 30.49C2.91 30.1 2.03 29.71 1.16 29.4C0.24 29.05 -0.24 28.02 0.11 27.09C0.46 26.17 1.5 25.69 2.42 26.04C3.52 26.45 4.38 26.83 5.23 27.2C7.7 28.29 9.98 29.3 14.29 29.3C18.59 29.3 20.87 28.3 23.33 27.21C26.66 25.74 30.3 24.13 38.49 24.13C46.68 24.13 50.22 25.7 53.51 27.15C53.56 27.17 53.61 27.19 53.64 27.21C56.11 28.3 58.39 29.31 62.69 29.31C66.99 29.31 69.27 28.3 71.75 27.21C72.59 26.84 73.45 26.44 74.55 26.03ZM40.3 55.25L40.3 68.19C40.3 69.19 39.49 70 38.49 70C37.49 70 36.68 69.19 36.68 68.19L36.68 55.25L30.67 61.24C29.97 61.94 28.83 61.94 28.12 61.24C27.41 60.53 27.41 59.39 28.12 58.69L37.21 49.63C37.91 48.92 39.05 48.92 39.76 49.63L48.85 58.69C49.56 59.39 49.56 60.53 48.85 61.24C48.14 61.94 47 61.94 46.29 61.24L40.3 55.25ZM60.54 14.74L60.54 1.8C60.54 0.8 61.35 0 62.35 0C63.34 0 64.15 0.8 64.15 1.8L64.15 14.74L70.16 8.75C70.87 8.05 72.01 8.05 72.72 8.75C73.42 9.46 73.42 10.6 72.72 11.3L63.63 20.36C62.92 21.06 61.78 21.06 61.07 20.36L51.99 11.3C51.28 10.6 51.28 9.46 51.99 8.75C52.69 8.05 53.83 8.05 54.54 8.75L60.54 14.74ZM12.85 14.74L12.85 1.8C12.85 0.8 13.66 0 14.65 0C15.65 0 16.46 0.8 16.46 1.8L16.46 14.74L22.47 8.75C23.17 8.05 24.32 8.05 25.02 8.75C25.72 9.46 25.72 10.6 25.02 11.3L15.94 20.36C15.23 21.06 14.09 21.06 13.38 20.36L4.29 11.29C3.58 10.59 3.58 9.45 4.29 8.75C4.99 8.04 6.13 8.04 6.84 8.75L12.85 14.74ZM1.18 44.47C0.25 44.13 -0.23 43.09 0.13 42.17C0.48 41.24 1.51 40.77 2.44 41.12C3.53 41.53 4.4 41.91 5.25 42.28C7.71 43.37 9.99 44.38 14.3 44.38C18.61 44.38 20.89 43.38 23.35 42.29C26.67 40.81 30.31 39.21 38.5 39.21C46.7 39.21 50.33 40.81 53.66 42.29C56.13 43.38 58.41 44.38 62.71 44.38C67.01 44.38 69.29 43.37 71.76 42.28C72.6 41.91 73.47 41.53 74.57 41.12C75.5 40.77 76.54 41.24 76.88 42.17C77.23 43.09 76.76 44.13 75.83 44.47C74.97 44.8 74.08 45.19 73.22 45.56C70.38 46.82 67.77 47.97 62.72 47.97C57.66 47.97 55.05 46.82 52.21 45.56C49.23 44.25 45.98 42.8 38.5 42.8C31.03 42.8 27.77 44.25 24.8 45.56C21.95 46.83 19.33 47.99 14.29 47.99C9.25 47.99 6.62 46.83 3.79 45.58C2.93 45.2 2.05 44.79 1.18 44.47Z" fill="#0CB563" fill-opacity="1.000000" fill-rule="nonzero"/>
</svg>
