<svg xmlns="http://www.w3.org/2000/svg" xmlns:xlink="http://www.w3.org/1999/xlink" width="65.8" height="70" fill="none" viewBox="0 0 65.8 70"><desc>Created with Pixso.</desc><path id="Форма 196" fill="#0CB563" fill-opacity="1" fill-rule="evenodd" d="M14.81 0L60.76 0C63.53 0 65.8 2.25 65.8 5.01C65.81 7.8 63.55 10.08 60.75 10.1L41.12 10.15C40.76 11.31 40.81 16.12 40.85 19.6C40.86 21.14 40.88 22.42 40.85 23.01C40.7 28.71 32.27 28.7 32.12 23.01L32.12 11.53C32.1 10.56 31.31 9.77 30.33 9.75C29.3 9.71 28.44 10.51 28.42 11.53L28.42 17.61C28.27 23.67 19.29 23.67 19.13 17.61L19.13 13.07C19.13 12.31 18.49 11.7 17.72 11.7L17.57 11.7C16.78 11.67 16.13 12.29 16.12 13.08L16.12 13.26C16 15.41 14.16 17.07 11.98 16.96C9.83 16.97 8.07 15.23 8.07 13.08L8.07 6.66C8.08 2.97 11.11 0 14.81 0ZM38.37 23.02L38.37 12.65C38.37 8.79 39.98 5.11 42.83 2.5L14.82 2.5C12.5 2.48 10.6 4.35 10.59 6.66L10.59 13.08C10.67 13.82 11.24 14.39 11.97 14.46C12.81 14.53 13.55 13.92 13.63 13.08C13.74 7.93 21.55 7.95 21.66 13.08L21.66 17.62C21.68 18.77 22.62 19.71 23.77 19.72C24.95 19.73 25.93 18.79 25.95 17.62L25.95 11.55C26.1 5.84 34.52 5.84 34.67 11.55L34.67 23.02C34.7 24 35.49 24.78 36.47 24.81C37.5 24.84 38.35 24.05 38.37 23.02ZM42.04 7.66L60.77 7.61C62.19 7.61 63.32 6.47 63.32 5.06C63.32 3.64 62.18 2.5 60.76 2.5L46.75 2.5C44.79 3.82 43.17 5.58 42.04 7.66ZM50.35 38.83L48.37 38.83L48.37 31.56C48.37 30.87 47.8 30.31 47.11 30.31L4.5 30.31C3.81 30.31 3.25 30.87 3.25 31.56L3.25 38.83L1.25 38.83C0.56 38.83 0 39.39 0 40.08L0 60C0 65.52 4.49 69.98 10.04 70L41.56 70C47.11 70 51.59 65.52 51.61 60L51.61 40.08C51.61 39.39 51.04 38.83 50.35 38.83ZM5.76 32.81L45.86 32.81L45.86 38.83L5.76 38.83L5.76 32.81ZM49.11 60C49.11 64.13 45.73 67.5 41.58 67.5L10.04 67.5C5.88 67.5 2.51 64.13 2.51 60L2.51 41.33L49.1 41.33L49.11 60ZM42.28 47.37L9.32 47.37C8.63 47.37 8.07 47.93 8.07 48.62L8.07 60.21C8.07 60.9 8.63 61.46 9.32 61.46L42.27 61.46C42.96 61.46 43.52 60.9 43.52 60.21L43.52 48.62C43.52 47.93 42.97 47.37 42.28 47.37ZM41.02 58.96L10.58 58.96L10.58 49.87L41.01 49.87L41.02 58.96Z"/></svg>