<svg width="60" height="60" viewBox="0 0 60 60" fill="#0CB563" xmlns="http://www.w3.org/2000/svg"><path d="M35.3 22.67c3.75-6.57 5.07-13.72 5.23-21.18C40.55.3 40.15-.02 39.02 0c-2.17.04-4.35.03-6.52.02h-5.08c-2.24 0-4.48 0-6.71-.01-.82 0-1.42.07-1.41 1.15.08 7.46 1.38 14.62 5.06 21.22.36.64.49 1.03-.05 1.73-1.01 1.3-.6 4.55.66 5.18.87.43.81.94.75 1.61-.01.05-.01.1-.02.14-.63 7.21-.8 14.42.15 21.61.27 2.12.66 4.26 1.93 6.07 1.06 1.51 2.66 1.69 3.86.49.6-.6.96-1.34 1.25-2.13.91-2.39 1.23-4.9 1.43-7.43.5-6.34.38-12.67-.24-19-.01-.06-.02-.12-.02-.18-.05-.29-.1-.58.24-.87 2.01-1.75 2.3-3.64.88-5.92-.26-.41-.12-.63.03-.86.04-.05.07-.1.09-.15zm-21.28-6.88c.58-1.61.46-3.16-.34-4.65-1.82-3.39-3.66-6.77-5.5-10.15-.03-.06-.07-.12-.1-.19C7.9.43 7.7.04 7.18.05c-.61 0-.76.54-.98.96C4.34 4.43 2.49 7.86.66 11.29c-.74 1.4-.88 2.87-.33 4.38.76 2.11 1.48 4.23 2.23 6.33.22.62.34 1.02-.41 1.52-1.57 1.07-1.48 4.87.13 5.8.72.42.76.82.7 1.5-.34 3.55-.44 7.11-.4 10.67v1.38c-.01 1-.02 2.01.01 3.01.1 3.72.3 7.42 1.54 10.97.51 1.47 1.12 3.08 3.05 3.09 1.94 0 2.53-1.61 3.07-3.08 1.06-2.92 1.31-5.99 1.48-9.06.3-5.66.16-11.32-.33-16.96-.06-.68 0-1.1.7-1.52 1.52-.91 1.7-4.65.26-5.72-.69-.51-.81-.87-.53-1.61.77-2.05 1.45-4.14 2.19-6.2zm45.2-4.83c.86 1.59 1.02 3.2.39 4.92-.76 2.06-1.39 4.15-2.17 6.2-.28.75-.07 1.03.52 1.49 1.55 1.21 1.36 4.81-.31 5.8-.65.38-.71.74-.66 1.38.67 7.3.84 14.6-.1 21.9-.24 1.84-.62 3.66-1.48 5.32-.55 1.08-1.25 2.01-2.64 1.99-1.32-.03-2-.93-2.52-1.96-1.26-2.53-1.57-5.31-1.81-8.07-.26-2.92-.42-5.84-.35-7.51.07-4.68.19-8.09.55-11.5.07-.7.04-1.18-.75-1.63-1.52-.88-1.64-4.65-.18-5.72.73-.54.72-.92.44-1.65-.74-2.01-1.39-4.05-2.11-6.07-.59-1.66-.47-3.24.37-4.78 1.81-3.34 3.61-6.69 5.42-10.03.22-.41.33-.95.95-.99.58-.03.77.38.95.78.04.08.08.17.13.25 1.8 3.29 3.58 6.58 5.36 9.88zM34.04 21.88c-.5.89-1.08 1.23-2.08 1.15-1.02-.09-2.07-.16-3.07.01-2 .33-2.93-.63-3.75-2.31-2.84-5.75-4.07-11.85-4.34-18.19-.03-.85.23-1.06 1.05-1.04 1.97.03 3.93.02 5.89.02.78 0 1.55-.01 2.32-.01.76 0 1.52 0 2.26.01 1.9 0 3.75 0 5.65-.01h.01c.64-.01 1.08-.02 1.04.88-.28 6.86-1.61 13.43-4.98 19.49zm20.53 1.15c.78.04 1.09-.26 1.33-.97.73-2.26 1.55-4.5 2.32-6.75.43-1.26.32-2.47-.33-3.65-1.66-3.03-3.29-6.07-5.05-9.33-1.16 2.13-2.22 4.04-3.23 5.96-1.61 3.06-2.37 4.12-2.46 5.23-.09 1.1.49 2.26 1.56 5.46.45 1.33.63 3.17 1.58 3.79.69.45 1.7.38 2.74.3.52-.03 1.05-.07 1.54-.04zm-44.31-.94c-.24.73-.6.98-1.35.94-.49-.03-1.02.01-1.54.04-1.04.08-2.06.15-2.75-.3-.94-.63-1.1-2.48-1.54-3.82-.33-.99-.61-1.77-.85-2.42-.5-1.41-.78-2.16-.74-2.9.06-1.09.8-2.14 2.44-5.24C4.98 6.41 6.06 4.45 7.2 2.34c1.83 3.36 3.62 6.59 5.33 9.86.47.91.49 1.95.11 2.99-.83 2.28-1.63 4.58-2.38 6.9zm22.54 6.15c-.67-.06-1.34-.05-2.01-.03-.3.01-.61.01-.91.01h-.97c-.75-.01-1.5-.01-2.25.01-.84.03-1.23-.28-1.29-1.16-.16-2.41-.06-2.55 2.38-2.56.52 0 1.03.01 1.55.02 1.19.01 2.38.03 3.56-.04 1.54-.09 1.58.77 1.6 1.91.03 1.24-.19 1.99-1.66 1.84zm-21.07-1.88v.31c.01.83.02 1.63-1.31 1.57-.77-.04-1.55-.03-2.34-.02H7.06c-.31 0-.61 0-.91-.01-.68-.01-1.35-.02-2.02.03-1.33.11-1.55-.6-1.5-1.7.01-.14.01-.27.01-.41.01-.89.01-1.69 1.46-1.64 2.09.09 4.19.06 6.29.01 1.38-.04 1.37.81 1.35 1.72 0 .05-.01.09-.01.14zm45.65.34c-.01-.09-.01-.18-.01-.27 0-.13 0-.26.01-.4.03-.73.06-1.49-1.12-1.51-.8-.02-1.6-.02-2.4-.01H50.7c-2.5 0-2.63.16-2.4 2.67.07.73.38 1.05 1.1 1.04h6.87c1.17-.01 1.14-.79 1.11-1.52zm-48 27.82c-.21.9-.53 1.77-.88 2.63-.23.58-.55 1.25-1.27 1.27-.74.02-1.04-.61-1.32-1.18-.02-.05-.04-.1-.07-.15-.89-1.82-1.19-3.81-1.39-5.8-.69-6.77-.5-13.54-.01-20.32.06-.95.34-1.43 1.39-1.28.43.06.87.04 1.31.03.2-.01.4-.01.59-.01 2.13 0 2.07 0 2.26 2.2.27 3.21.33 6.43.38 9.9-.05 4.09-.03 8.44-.99 12.71zm44.64 2.86c.87-1.55 1.16-3.29 1.4-5.02.87-6.56.67-13.14.28-19.71-.18-2.95-.16-2.95-3.16-2.95-.14 0-.28.01-.42.01-.3.01-.6.02-.9-.02-.84-.11-1.04.26-1.11 1.06-.29 3.5-.44 7-.22 10.51 0 .84-.01 1.69-.03 2.54-.02 1.93-.05 3.86.07 5.79.16 2.66.42 5.36 1.7 7.79.77 1.46 1.58 1.45 2.39 0zm-22.05-2.32c-.22.95-.52 1.87-1.08 2.69-.64.93-1.3.96-1.94.01-.81-1.19-1.15-2.57-1.38-3.96-1.28-7.76-.98-15.54-.33-23.33.06-.68.33-.82.91-.77.3.02.6.02.91.01h.4c3.14 0 3.16 0 3.34 3.07.16 2.82.26 5.65.35 7.71-.08 5.39-.09 10.03-1.18 14.57z"/></svg>