<svg xmlns="http://www.w3.org/2000/svg" xmlns:xlink="http://www.w3.org/1999/xlink" width="70" height="70" fill="none" viewBox="0 0 70 70"><desc>Created with Pixso.</desc><path id="Форма 191" fill="#0CB563" fill-opacity="1" fill-rule="nonzero" d="M69.98 30.52C69.97 25.06 65.95 21.06 60.48 21.02C57.02 21 53.56 20.99 50.1 21.04C49.22 21.05 48.93 20.83 48.95 19.91C49 16.5 48.98 13.08 48.97 9.66C48.94 4.01 44.97 0.01 39.35 0.01C29.42 -0.01 19.49 -0.01 9.55 0.01C4.04 0.02 0.02 4.07 0 9.6C-0.01 14.57 0 19.54 0 24.5C0 29.47 -0.01 34.43 0 39.4C0.02 44.94 4.01 48.94 9.57 48.97C12.98 48.99 16.4 49 19.82 48.95C20.76 48.93 21.06 49.16 21.04 50.14C20.98 53.61 20.99 57.07 21.02 60.53C21.06 65.92 25.06 69.96 30.42 69.98C40.45 70 50.47 70 60.5 69.98C65.92 69.97 69.97 65.9 69.98 60.45C70 50.47 70 40.49 69.98 30.52ZM46.7 20.29C46.71 20.93 46.4 21.04 45.86 21.03C44.65 21.01 43.43 21.02 42.44 21.02C43.83 19.64 45.29 18.18 46.69 16.79C46.69 17.79 46.66 19.04 46.7 20.29ZM45.78 5.95C46.98 8.11 46.68 10.45 46.62 12.75C46.61 13.04 46.21 13.33 45.96 13.58C43.71 15.84 41.46 18.09 39.21 20.34C38.86 20.69 38.56 21.04 37.96 21.03C35.29 21 32.62 21.01 29.58 21.01C34.82 15.79 39.82 10.82 44.8 5.83C45.24 5.39 45.47 5.39 45.78 5.95ZM35.91 23.35C35.33 24.28 24.77 34.94 23.31 36.03C23.31 33.98 23.25 32.12 23.32 30.26C23.47 26.49 26.04 23.7 29.78 23.38C31.8 23.21 33.84 23.35 35.91 23.35ZM24.27 2.34C26.99 2.35 29.7 2.35 32.53 2.35C22.41 12.47 12.45 22.43 2.35 32.52C2.35 29.66 2.35 26.88 2.36 24.09C2.36 23.64 2.79 23.41 3.07 23.13C9.76 16.43 16.46 9.74 23.16 3.04C23.47 2.72 23.74 2.34 24.27 2.34ZM9.44 2.43C7.16 4.71 4.78 7.11 2.43 9.46C2.09 5.55 5.51 2.13 9.44 2.43ZM4.19 11.39C7.07 8.74 9.78 5.91 12.52 3.11C13.07 2.54 13.64 2.31 14.43 2.33C16.34 2.38 18.25 2.34 20.27 2.34C14.25 8.36 8.37 14.23 2.34 20.26C2.34 18.83 2.47 17.41 2.31 16.01C2.09 14.08 2.76 12.71 4.19 11.39ZM13.45 46.09C13.23 46.31 12.96 46.64 12.7 46.64C10.45 46.66 8.14 46.98 6.03 45.82C5.62 45.6 5.2 45.42 5.77 44.86C10.79 39.86 15.78 34.85 21.02 29.61C21.02 32.57 21 35.15 21.03 37.74C21.04 38.34 20.82 38.75 20.41 39.16C18.08 41.46 15.77 43.78 13.45 46.09ZM20.14 46.69C18.96 46.66 17.78 46.69 17.01 46.69C18.26 45.42 19.71 43.96 21.02 42.64C21.02 43.44 20.99 44.66 21.04 45.87C21.06 46.57 20.75 46.71 20.14 46.69ZM4.62 42.73C3.89 43.46 3.31 43.35 2.9 42.39C2.05 40.43 2.4 38.36 2.36 36.33C2.35 35.87 2.78 35.64 3.06 35.36C13.81 24.61 24.56 13.85 35.3 3.09C35.82 2.58 36.33 2.28 37.09 2.33C38.26 2.41 39.45 2.36 40.63 2.44C41.73 2.52 42.74 2.92 43.76 3.77C42.73 4.74 41.71 5.65 40.75 6.61C28.7 18.65 16.66 30.69 4.62 42.73ZM23.3 42.89C22.65 40.38 23.96 38.77 25.67 37.12C30.11 32.86 34.41 28.46 38.74 24.09C39.29 23.53 39.84 23.26 40.64 23.29C42.24 23.34 43.83 23.29 45.43 23.32C45.84 23.33 46.46 23.03 46.61 23.63C46.76 24.17 46.87 24.81 46.44 25.33C46.24 25.57 46 25.78 45.77 26.01C39.17 32.61 32.56 39.22 25.96 45.82C25.73 46.05 25.52 46.29 25.27 46.48C24.74 46.86 24.1 46.77 23.57 46.6C23.09 46.44 23.33 45.88 23.31 45.5C23.28 44.63 23.3 43.76 23.3 42.89ZM46.08 36.26C42.8 39.54 39.52 42.82 36.25 46.1C35.87 46.48 35.5 46.7 34.94 46.69C32.91 46.66 30.87 46.68 28.84 46.68C34.8 40.72 40.72 34.8 46.68 28.84C46.68 30.93 46.67 33.09 46.68 35.25C46.69 35.73 46.36 35.98 46.08 36.26ZM46.63 39.48C46.7 43.63 43.47 46.84 39.49 46.59C41.82 44.27 44.24 41.86 46.63 39.48ZM67.64 60.18C67.63 64.75 64.77 67.6 60.22 67.63C55.3 67.66 50.38 67.64 45.46 67.64C40.63 67.64 35.8 67.65 30.97 67.64C26.18 67.62 23.32 64.76 23.31 59.99C23.29 56.72 23.34 53.43 23.28 50.16C23.26 49.19 23.54 48.94 24.5 48.94C29.42 48.99 34.34 48.98 39.26 48.96C45.02 48.95 48.95 45.03 48.97 39.29C48.98 34.42 49 29.54 48.95 24.67C48.94 23.66 49.11 23.25 50.26 23.28C53.54 23.36 56.82 23.29 60.1 23.31C64.72 23.33 67.63 26.19 67.64 30.8C67.66 40.6 67.66 50.39 67.64 60.18Z"/></svg>