<svg width="70.000000" height="70.000000" viewBox="0 0 70 70" fill="none" xmlns="http://www.w3.org/2000/svg" xmlns:xlink="http://www.w3.org/1999/xlink">
	<desc>
			Created with Pixso.
	</desc>
	<defs/>
	<path id="Форма 201" d="M32.86 68.17C33.05 69.38 33.77 70 35 70C35.6 70 36.09 69.85 36.44 69.54C36.8 69.24 37.03 68.78 37.13 68.17L41.42 42.27C41.5 41.78 41.78 41.49 42.26 41.42L68.17 37.13C69.39 36.93 70 36.22 70 34.99C70 33.76 69.39 33.05 68.18 32.85L42.26 28.57C41.78 28.49 41.5 28.2 41.42 27.72L37.13 1.82C36.94 0.6 36.23 0 35 0C34.38 0 33.9 0.15 33.54 0.45C33.18 0.75 32.96 1.21 32.86 1.81L28.57 27.72C28.49 28.2 28.21 28.49 27.73 28.57L1.82 32.85C1.21 32.95 0.75 33.18 0.45 33.54C0.15 33.89 0 34.38 0 34.99C0 36.22 0.6 36.93 1.81 37.13L27.73 41.42C28.21 41.5 28.49 41.79 28.57 42.27L32.86 68.17ZM35 7.48L31.56 28.23C31.4 29.2 31.04 29.97 30.47 30.52C29.91 31.07 29.16 31.42 28.22 31.58L7.48 35L28.22 38.43C29.19 38.59 29.95 38.96 30.51 39.52C31.06 40.08 31.41 40.83 31.56 41.79L35 62.52L38.43 41.78C38.75 39.86 39.86 38.75 41.78 38.44L62.52 35.01L41.77 31.58C40.81 31.41 40.04 31.05 39.49 30.49C38.93 29.93 38.58 29.17 38.43 28.22L35 7.48ZM11.42 21.71C11.62 22.92 12.33 23.53 13.56 23.53C14.18 23.53 14.66 23.38 15.02 23.07C15.38 22.77 15.6 22.32 15.7 21.71L16.5 16.87C16.54 16.62 16.63 16.43 16.78 16.29C16.92 16.15 17.11 16.06 17.35 16.02L22.2 15.21C23.41 15.02 24.02 14.31 24.02 13.08C24.02 12.46 23.87 11.98 23.56 11.62C23.26 11.26 22.81 11.04 22.2 10.94L17.35 10.14C16.87 10.05 16.58 9.77 16.5 9.29L15.7 4.44C15.5 3.23 14.79 2.62 13.56 2.62C12.95 2.62 12.47 2.77 12.11 3.08C11.75 3.38 11.52 3.83 11.42 4.44L10.62 9.29C10.54 9.77 10.26 10.06 9.78 10.14L4.93 10.94C4.33 11.04 3.87 11.26 3.57 11.62C3.26 11.98 3.11 12.46 3.11 13.08C3.11 14.3 3.72 15.01 4.93 15.21L9.78 16.02C10.26 16.1 10.54 16.38 10.62 16.87L11.42 21.71ZM54.22 16.87L55.02 21.71C55.22 22.92 55.93 23.53 57.16 23.53C58.39 23.53 59.1 22.92 59.3 21.71L60.1 16.87C60.18 16.38 60.47 16.1 60.95 16.02L65.8 15.21C67.01 15.02 67.62 14.31 67.62 13.08C67.62 11.85 67.01 11.14 65.8 10.94L60.95 10.14C60.47 10.05 60.18 9.77 60.1 9.29L59.3 4.44C59.2 3.84 58.97 3.38 58.62 3.08C58.26 2.77 57.78 2.62 57.16 2.62C56.55 2.62 56.06 2.77 55.7 3.08C55.35 3.38 55.12 3.84 55.02 4.44L54.22 9.28C54.14 9.77 53.85 10.06 53.37 10.14L48.53 10.94C47.31 11.13 46.71 11.85 46.71 13.08C46.71 14.31 47.31 15.02 48.52 15.21L53.37 16.02C53.86 16.1 54.14 16.38 54.22 16.87ZM13.57 16.11C13.75 15.28 14.1 14.6 14.61 14.1C15.11 13.6 15.77 13.27 16.6 13.09C14.94 12.74 13.93 11.73 13.57 10.07C13.21 11.73 12.21 12.74 10.55 13.09C12.21 13.45 13.22 14.46 13.57 16.11ZM57.16 10.06C56.81 11.73 55.8 12.74 54.14 13.09C54.97 13.27 55.64 13.61 56.14 14.12C56.64 14.62 56.98 15.28 57.16 16.11C57.34 15.27 57.69 14.6 58.2 14.09C58.7 13.59 59.37 13.26 60.19 13.08C58.53 12.73 57.52 11.72 57.16 10.06Z" fill="#0CB563" fill-opacity="1.000000" fill-rule="evenodd"/>
</svg>
