<svg width="72" height="60" viewBox="0 0 72 60" fill="#0CB563" xmlns="http://www.w3.org/2000/svg"><path d="M58.88 18.09c-.8 0-1.59.07-2.37.21C55.42 7.95 46.68 0 36.09 0c-6.86 0-13.03 3.39-16.78 8.68H6.84v2.07h11.18c-.84 1.55-1.49 3.21-1.9 4.98-.6-.08-1.19-.12-1.77-.12C6.43 15.61 0 22.03 0 29.92c0 7.9 6.43 14.32 14.35 14.32h14.68v-2.07H14.35c-6.77 0-12.28-5.49-12.28-12.25 0-6.75 5.51-12.24 12.28-12.24.76 0 1.57.08 2.37.24l1.03.21.19-1.03a18.3 18.3 0 012.48-6.34h11.1V8.69h-9.6c3.41-4.08 8.53-6.62 14.17-6.62 9.89 0 17.99 7.72 18.43 17.57l.06 1.31 1.26-.37c1-.28 2.02-.42 3.03-.42 6.09 0 11.04 4.93 11.04 11.01 0 .72-.07 1.44-.2 2.13H56.72v2.07h12.35c-1.65 3.99-5.6 6.81-10.19 6.81h-9.73v2.07h9.73c7.23 0 13.12-5.87 13.12-13.08 0-7.2-5.89-13.08-13.12-13.08zM41.24 30.02c2.89 0 5.25-2.35 5.25-5.24 0-1.51-.61-2.47-.64-2.51l-4.61-8.23-4.57 8.17c-.07.1-.68 1.06-.68 2.57 0 2.89 2.35 5.24 5.25 5.24zm-2.81-6.74l2.81-5 2.84 5.06s.34.55.34 1.44a3.18 3.18 0 01-3.18 3.17 3.18 3.18 0 01-3.18-3.17c0-.89.33-1.41.37-1.5zM26.69 34.04c0-1.52.62-2.47.68-2.58l4.58-8.16 4.61 8.23c.02.03.64.99.64 2.51 0 2.88-2.36 5.23-5.25 5.23-2.9 0-5.26-2.35-5.26-5.23zm8.43 0c0-.89-.34-1.44-.34-1.44l-2.83-5.07-2.81 5.01c-.05.08-.37.61-.37 1.5 0 1.74 1.43 3.16 3.18 3.16 1.75 0 3.17-1.42 3.17-3.16zm-17.18-6.09H6.84v2.07h11.1v-2.07zm23.72 6.81l-4.57 8.16c-.07.11-.68 1.06-.68 2.57 0 2.89 2.36 5.24 5.25 5.24 2.9 0 5.25-2.35 5.25-5.24 0-1.51-.61-2.47-.64-2.5l-4.61-8.23zm0 13.91a3.18 3.18 0 01-3.18-3.17c0-.88.34-1.41.38-1.5l2.8-5 2.84 5.06s.34.56.34 1.44c0 1.76-1.43 3.17-3.18 3.17zm-13.85 3.52l4.57-8.17 4.61 8.23c.03.04.64 1 .64 2.51 0 2.89-2.36 5.24-5.25 5.24-2.9 0-5.25-2.35-5.25-5.24 0-1.51.61-2.47.68-2.57zm1.39 2.58c0 1.74 1.43 3.17 3.18 3.17 1.75 0 3.18-1.43 3.18-3.17 0-.89-.34-1.44-.34-1.44l-2.84-5.07-2.81 5.01c-.05.08-.37.61-.37 1.5z"/></svg>