<svg width="79" height="60" viewBox="0 0 79 60" fill="#0CB563" xmlns="http://www.w3.org/2000/svg"><path d="M72.55 12.99l-.12-.09-4.48-3.72-3.43-2.83-2.46 2.95 6.97 5.77 1.29 1.06.05.05 1.44 1.19 2.49-2.94-1.75-1.44zm-5.59-7.42l3-3.56c1.92-2.26 5.22-2.68 7.35-.95 1.12.93 1.69 2.3 1.69 3.72 0 1.24-.44 2.53-1.33 3.6l-3.01 3.54 1.87 1.55c.22.19.36.44.39.73v.1c0 .25-.08.49-.24.69l-3.88 4.59c-.21.24-.53.39-.85.39-.26 0-.5-.09-.7-.26l-1.49-1.23-13.29 15.73.76-.03c.33-.03.66.09.88.34.19.19.29.45.29.72 0 .06-.01.11-.01.17A29.05 29.05 0 0148.47 53c-5.32 4.52-12.1 6.99-19.1 7-9.92 0-19.17-4.96-24.59-13.18A28.817 28.817 0 010 30.92c0-3.96.81-7.94 2.47-11.68 3.99-8.99 12.3-15.38 22.09-16.99 9.79-1.62 19.73 1.78 26.45 9.01.18.2.28.45.28.72 0 .06 0 .11-.01.17-.05.32-.25.61-.53.77-3.68 2.07-5.81 5.95-5.81 9.94 0 1.39.26 2.79.8 4.14.24.64.56 1.27.92 1.86l14.68-17.35-1.51-1.25c-.25-.21-.39-.51-.39-.81 0-.25.09-.5.26-.7l3.85-4.59c.19-.22.45-.36.74-.38.29-.03.57.06.79.24l1.88 1.55zM45.2 30.58c-.61-.86-1.12-1.81-1.5-2.8-.63-1.6-.95-3.29-.95-4.98 0-1.29.19-2.58.56-3.84.87-2.9 2.7-5.42 5.18-7.17-7.6-7.43-19.15-9.81-29.14-5.89C12.64 8.52 7.26 13.67 4.4 20.22a26.741 26.741 0 00-.34 20.61c5.52 13.78 21.35 20.56 35.29 15.12 8.5-3.32 14.79-10.78 16.65-19.61-.43-.01-.84-.04-1.26-.09l-3.67 4.33c-.14.18-.35.31-.58.36l-1.53.38c.02.21.03.42.03.63 0 .31-.03.62-.07.93-.46 3.2-3.24 5.59-6.49 5.6-.33 0-.65-.03-.96-.07-3.26-.5-5.6-3.27-5.6-6.42 0-.33.02-.65.07-.99.47-3.17 3.22-5.47 6.38-5.53l.07-1.23c.02-.23.1-.45.25-.63l2.56-3.03zM68.63 6.94l.1.09L73 10.55l3.01-3.54c.56-.68.84-1.48.84-2.24 0-.8-.31-1.55-.92-2.05-1.22-.99-3.15-.69-4.31.67l-2.99 3.55zm-.54 10.16L63 12.89 52.57 25.23l9.9-1.48 5.62-6.65zM32.5 20.69c-3.15 0-5.86-2.21-6.46-5.27-.08-.41-.12-.83-.12-1.24 0-2.61 1.6-5.03 4.14-6.03 1.62-.63 3.42-.61 5.02.09 1.61.69 2.87 1.97 3.51 3.57.31.77.46 1.59.46 2.39 0 1.29-.38 2.56-1.14 3.65a6.533 6.533 0 01-5.41 2.84zm-1.65-10.54c-1.36.54-2.37 1.71-2.67 3.13-.07.3-.1.61-.1.91 0 1.12.44 2.22 1.25 3.04a4.43 4.43 0 003.95 1.24 4.376 4.376 0 003.24-2.56c.24-.55.37-1.14.37-1.73 0-.53-.11-1.07-.31-1.58-.91-2.23-3.48-3.33-5.73-2.45zm12.19 32.56c-.3 0-.58-.13-.79-.34-.2-.2-.3-.46-.3-.73 0-.03.01-.05.01-.07l.23-3.95c-1.46.08-2.81.87-3.57 2.15a4.31 4.31 0 00.27 4.82 4.439 4.439 0 004.61 1.61 4.386 4.386 0 003.27-3.6c.02-.21.04-.43.04-.64v-.12l-3.51.85c-.09.02-.17.02-.26.02zm1.5-8l-.11 1.91v.02c0 .03 0 .07-.01.11v.03l-.2 3.46 2.99-.73c.07-.04.14-.07.22-.09.09-.02.18-.03.27-.03l1.93-.47 10.74-12.69-9.9 1.48-5.93 7zm-28.22-8.35c-1.91.02-3.74-.79-5-2.23a6.41 6.41 0 01-1.6-4.24c0-.32.03-.65.08-.97.52-3.54 3.86-5.99 7.44-5.47 3.25.47 5.59 3.25 5.59 6.41 0 .32-.02.64-.07.96-.46 3.17-3.2 5.53-6.44 5.54zm-.03-10.82c-2.18 0-4.03 1.57-4.34 3.7a4.33 4.33 0 00.8 3.23c.7.93 1.74 1.54 2.89 1.7 1.14.18 2.33-.11 3.26-.8.94-.68 1.56-1.71 1.72-2.85.03-.21.05-.43.05-.64 0-1.03-.38-2.04-1.06-2.83a4.413 4.413 0 00-3.32-1.51zM13.14 43.1c-3.53 0-6.42-2.78-6.52-6.28v-.19c0-3.42 2.68-6.25 6.14-6.45 3.53-.21 6.58 2.39 6.89 5.88.02.19.03.39.03.58 0 3.24-2.45 6.02-5.76 6.41-.26.03-.52.05-.78.05zm.01-10.84c-.16 0-.33 0-.5.03a4.38 4.38 0 00-3.72 3.12 4.3 4.3 0 001.5 4.6 4.36 4.36 0 003.23.91 4.34 4.34 0 002.92-1.62c.62-.78.96-1.73.96-2.71a4.312 4.312 0 00-1.68-3.38c-.76-.63-1.72-.95-2.71-.95zm13.07 21.88a6.52 6.52 0 01-5.08-2.41 6.433 6.433 0 01-1.32-5.41 6.555 6.555 0 013.4-4.44c1.76-.89 3.82-.97 5.63-.19a6.51 6.51 0 013.92 5.95c0 .44-.04.89-.14 1.33-.63 3.01-3.3 5.17-6.41 5.17zm.01-10.84c-1.31 0-2.56.57-3.4 1.57-.66.78-1.01 1.77-1.01 2.78 0 .27.02.54.07.81a4.403 4.403 0 002.2 3.01c1.15.62 2.52.7 3.74.23a4.335 4.335 0 002.79-4.04c0-.27-.02-.53-.07-.8-.39-2.05-2.21-3.56-4.32-3.56z"/></svg>