<svg width="122" height="61" viewBox="0 0 122 61" fill="#0CB563" xmlns="http://www.w3.org/2000/svg"><path d="M14.88 59.51V25.74H0v-15.2C13.2 10.46 17.67 7.59 20.54 0h18.65v59.51H14.88zm106.23-20.57v.88c0 7.77-3.52 20.57-33.29 20.57h-3.43c-31.53 0-33.75-13.05-33.75-18.81v-.71h25.35c.33.71 1.13 3.03 10.33 3.03 8.22 0 10.47-2.48 10.47-5.27v-.31c0-2.9-2.33-5.04-10.47-5.04-9.12 0-10 2.46-10.33 3.1H51.67V0h65.35v15.74H75.75v9.12c1.12-.88 5.84-4.63 19.05-4.63h1.03c21.37 0 25.28 10.47 25.28 18.71z"/></svg>