<svg width="217" height="62" viewBox="0 0 217 62" fill="#0CB563" xmlns="http://www.w3.org/2000/svg"><path d="M134.64 29.45C134.64 17.51 140.48 0 173.6 0h3.67c33.21 0 38.89 17.51 38.89 29.45v2.4c0 11.76-5.61 29.75-38.89 29.75h-3.67c-33.12 0-38.96-17.99-38.96-29.75v-2.4zm-8.01.15v1.92c0 9.2-3.85 29.92-35.84 29.92h-3.67c-30.1 0-35.21-11.52-35.21-19.12v-.08h24.08c.33.96 1.6 4.01 11.52 4.01 11.84 0 13.85-6.8 13.85-11.53v-.56c-1.86 1.36-6.9 4.72-21.68 4.72h-.72c-23.93 0-29.93-8.4-29.93-17.75v-1.29c0-8.89 5.04-19.51 35.51-19.51h4.26c33.44 0 37.83 19.04 37.83 29.27zM14.88 60.56V26.79H0V11.6c13.2-.08 17.67-2.95 20.54-10.55h18.65v59.51H14.88zm71.99-44.88c-11.68 0-12.64 2.71-12.64 5.37 0 2.64 2.17 5.2 12.64 5.2 11.75 0 13.12-2.56 13.12-5.3 0-2.63-1.37-5.27-13.12-5.27zM190.55 30.8V30c0-4.71-2.01-12.49-15.19-12.49-13.28 0-15.22 7.78-15.22 12.49v.8c0 4.88 2.25 12.81 15.3 12.81 13.1 0 15.11-7.93 15.11-12.81z"/></svg>