<svg width="237" height="74" viewBox="0 0 237 74" fill="#0CB563" xmlns="http://www.w3.org/2000/svg"><path d="M182.56 43.51h53.51v16.88h-73.2V49.02c0-9.44 4.08-18.15 28.01-23.11 2.87-.56 5.43-1.13 8.07-1.6 9.68-1.85 10.72-3.05 10.72-4.96v-.16c0-2.09-1.19-4.16-10.08-4.16-10.23 0-10.64 4.16-10.8 6.47h-24.8v-.55c0-7.77 2.96-20.95 33.12-20.95h4.88c26.41 0 33.13 7.98 33.13 19.35V20c0 11.34-9.77 15.83-30.72 17.98-3.05.34-6.33.8-8.89 1.12-11.27 1.44-12.95 3.04-12.95 4.41zM14.88 60.39V26.62H0v-15.2C13.2 11.34 17.67 8.47 20.54.87h18.65v59.52H14.88zm140.54-20.57v.88c0 7.77-3.51 20.56-33.28 20.56h-3.43c-31.53 0-33.75-13.04-33.75-18.8v-.71h25.35c.33.71 1.13 3.03 10.33 3.03 8.22 0 10.47-2.48 10.47-5.27v-.32c0-2.89-2.33-5.03-10.47-5.03-9.12 0-10 2.46-10.33 3.1H85.99V.87h65.35v15.75h-41.27v9.12c1.12-.88 5.84-4.63 19.05-4.63h1.03c21.37 0 25.27 10.47 25.27 18.71zM75.26 56.79c0 5.92-3.2 12.72-5.35 16.31H55.75c2.25-3.28 5.28-9.12 6.31-12.71H50.71V41.34h24.55v15.45z"/></svg>