<svg width="44" height="36" viewBox="0 0 44 36" fill="#FFF" fill-rule="evenodd" xmlns="http://www.w3.org/2000/svg"><path d="M4.38 7.51L0 9.83l1.28 2.59 3.1-1.64v1.1c0 .26-.05.51-.14.74-.14.34-.39.64-.75.88-.33.23-.67.39-1.03.5-.28.08-.58.12-.89.12v2.91c.59 0 1.17-.08 1.71-.25.62-.18 1.22-.47 1.78-.86.77-.53 1.33-1.17 1.69-1.92.3-.63.45-1.34.45-2.12v-.97c3.93-.46 6.71-.26 8.36.59.58.3.94.68 1.09 1.13.03.08.05.17.07.26.13.81-.2 1.91-.98 3.31l2.43 1.46c1.12-2 1.56-3.74 1.33-5.24a4.69 4.69 0 00-.49-1.48c-.46-.84-1.19-1.52-2.19-2.04-1.6-.83-3.85-1.2-6.76-1.12l9.81-5.19L18.59 0 7.2 6.02V1.56H4.38v5.95zm22.88-5.65h-5.88v2.91h3.12v12.15h2.81V4.77h10.95v8.99a5.52 5.52 0 00.45 2.18c.1.23.22.45.36.66.2.29.44.56.72.8l.43.36L42 15.5l-.44-.37a.955.955 0 01-.24-.29c-.01-.02-.03-.05-.04-.08-.11-.26-.18-.52-.2-.79 0-.07-.01-.14-.01-.21V1.86H27.26zm8 17.02l.75-1.16-2.33-1.63-1.4 2.15c-.14.21-.25.42-.34.64h-9.32v14.17h2.82v-2.52h6.19v1.53c0 .54.1 1.03.28 1.49.18.46.46.87.82 1.25.37.38.77.66 1.21.85.41.18.85.27 1.32.29.4.06.8.07 1.2.04.65-.06 1.3-.24 1.93-.56.78-.39 1.41-.89 1.9-1.52.08-.1.15-.2.22-.3l-2.32-1.66c-.23.35-.57.63-1.02.86-.37.18-.73.27-1.1.28-.15 0-.3-.01-.46-.03l-.11-.02h-.12c-.13 0-.25-.03-.36-.08a.748.748 0 01-.3-.21.79.79 0 01-.2-.31.873.873 0 01-.07-.37v-1.53h5.64c.54 0 1.04-.1 1.5-.29.46-.2.88-.49 1.26-.89.38-.39.67-.83.86-1.31.19-.47.29-.98.29-1.53v-7.63h-8.74zm-3.63 2.92h-6.19v5.82h6.19V21.8zm2.82 5.82V21.8h6.73v4.71c0 .15-.03.28-.08.41-.05.14-.13.26-.24.37-.1.11-.22.19-.35.25-.13.05-.27.08-.42.08h-5.64zM3.18 18.95H1.62v2.92h1.56v12.92H6V21.87h10.34v8.98c0 .19.01.38.03.57.03.33.1.66.19.98.12.43.3.82.53 1.17.3.44.69.82 1.18 1.14l1.11.72 1.5-2.46-1.11-.72a1.25 1.25 0 01-.42-.44.917.917 0 01-.09-.23 2.84 2.84 0 01-.1-.57V18.95H3.18z"/></svg>