<svg xmlns="http://www.w3.org/2000/svg" xmlns:xlink="http://www.w3.org/1999/xlink" viewBox="0 0 621.134 568.612" width="621.134277" height="568.611816" fill="none"><defs>
		<g id="pixso_custom_effect_0">
			<effect x="0.000000" y="4.567164" visibility="visible" fill="rgb(0,0,0)" fill-opacity="0.25" effecttype="dropShadow" stdDeviation="4.56716394" radius="0"></effect>
		</g>
		<filter id="filter_0" width="621.134277" height="568.611816" x="0.000000" y="0.000000" filterUnits="userSpaceOnUse" customeffect="url(#pixso_custom_effect_0)" color-interpolation-filters="sRGB">
			<feFlood flood-opacity="0" result="BackgroundImageFix"></feFlood>
			<feColorMatrix result="hardAlpha" in="SourceAlpha" type="matrix" values="0 0 0 0 0 0 0 0 0 0 0 0 0 0 0 0 0 0 127 0 "></feColorMatrix>
			<feOffset dx="0.000000" dy="4.567164" in="hardAlpha"></feOffset>
			<feGaussianBlur stdDeviation="1.52238798"></feGaussianBlur>
			<feComposite k2="-1" k3="1" in2="hardAlpha" operator="out"></feComposite>
			<feColorMatrix type="matrix" values="0 0 0 0 0 0 0 0 0 0 0 0 0 0 0 0 0 0 0.25 0 "></feColorMatrix>
			<feBlend result="effect_dropShadow_1" in2="BackgroundImageFix" mode="normal"></feBlend>
			<feBlend result="shape" in="SourceGraphic" in2="effect_dropShadow_1" mode="normal"></feBlend>
		</filter>
		<clipPath id="clipPath_0">
			<rect width="611.999939" height="559.477539" x="4.567139" y="0.000000" rx="27.402983" fill="rgb(255,255,255)"></rect>
		</clipPath>
	</defs><g clip-path="url(#clipPath_0)" filter="url(#filter_0)" customframe="url(#clipPath_0)">
		<rect id="Frame 11" width="611.999939" height="559.477539" x="4.567139" y="0.000000" rx="27.402983" fill="rgb(12,181,99)"></rect>
		<path id="Vector" d="M180.106 170.859L289.236 115.055L274.245 85.7388L145.89 151.373L145.89 103.311L112.963 103.311L112.963 168.206L63.5671 193.463L78.5586 222.778L112.963 205.192L112.963 216.327C112.963 236.059 87.8666 240.336 81.6613 240.336L81.6613 273.262C108.338 273.262 145.904 255.603 145.904 216.327L145.904 206.149C210.77 199.03 242.377 209.034 250.337 221.082C257.339 231.695 249.51 249.949 241.71 263.389L270.185 279.917C288.337 248.658 290.903 222.749 277.826 202.93C263.095 180.617 230.3 169.873 180.12 170.83L180.106 170.859Z" fill="rgb(18,17,20)" fill-rule="nonzero"></path>
		<g id="Group">
			<path id="Vector" d="M242.855 423.249L72.2225 423.249L72.2225 390.323L242.855 390.323C249.264 390.323 254.469 385.118 254.469 378.709L254.469 346.668L72.2225 346.668L72.2225 313.742L287.409 313.742L287.409 378.709C287.409 403.27 267.43 423.249 242.87 423.249L242.855 423.249Z" fill="rgb(18,17,20)" fill-rule="nonzero"></path>
			<path id="Vector" d="M145.672 491.798L133.044 483.852C123.504 477.85 116.544 468.759 113.471 458.248C111.847 452.681 111.006 446.939 111.006 441.183L111.006 332.314L143.932 332.314L143.932 441.183C143.932 443.808 144.309 446.432 145.063 448.998C145.875 451.782 147.832 454.275 150.572 455.986L163.201 463.931L145.672 491.798Z" fill="rgb(18,17,20)" fill-rule="nonzero"></path>
		</g>
		<g id="Group">
			<path id="Vector" d="M495.332 212.397L363.845 212.397L363.845 179.471L495.332 179.471C501.74 179.471 506.945 174.266 506.945 167.858L506.945 135.816L324.699 135.816L324.699 102.89L539.886 102.89L539.886 167.858C539.886 192.418 519.907 212.397 495.346 212.397L495.332 212.397Z" fill="rgb(18,17,20)" fill-rule="nonzero"></path>
			<path id="Vector" d="M361.685 280.946L374.313 273.001C383.853 266.998 390.812 257.908 393.886 247.396C395.51 241.829 396.351 236.088 396.351 230.332L396.351 121.463L363.424 121.463L363.424 230.332C363.424 232.956 363.048 235.58 362.294 238.146C361.482 240.93 359.524 243.424 356.784 245.135L344.156 253.08L361.685 280.946Z" fill="rgb(18,17,20)" fill-rule="nonzero"></path>
		</g>
		<path id="Vector" d="M331.659 487.883L331.659 454.957C337.864 454.957 362.961 450.68 362.961 430.948L362.961 317.932L395.887 317.932L395.887 430.948C395.887 470.21 358.321 487.883 331.644 487.883L331.659 487.883Z" fill="rgb(18,17,20)" fill-rule="nonzero"></path>
		<path id="Vector" d="M329.672 433.238L333.66 428.338C334.747 427.004 336.11 425.946 337.589 425.293C341.097 423.742 344.722 422.959 348.376 422.959L442.297 422.959L442.297 390.033L348.376 390.033C340.111 390.033 332.007 391.758 324.279 395.18C318.074 397.92 312.477 402.212 308.128 407.561L304.141 412.462L329.687 433.238L329.672 433.238Z" fill="rgb(18,17,20)" fill-rule="nonzero"></path>
		<path id="Vector" d="M0 3.57635C132.545 -7.45224 213.853 5.41673 224.002 64.8605" fill-rule="nonzero" stroke="rgb(18,17,20)" stroke-width="32.926052" transform="matrix(1,0,0,-1,330.339,332.555)"></path>
	</g></svg>