<svg xmlns="http://www.w3.org/2000/svg" xmlns:xlink="http://www.w3.org/1999/xlink" width="287.913" height="72.537" fill="none" customFrame="#000000" viewBox="0 0 287.913 72.537"><g id="Сочетание 1"><path id="Vector" fill="#FFF" fill-rule="nonzero" d="M34.8396 39.6257L67.4643 22.9428L62.9826 14.1787L24.6105 33.8004L24.6105 19.432L14.7672 19.432L14.7672 38.8326L0 46.383L4.48173 55.1471L14.7672 49.8895L14.7672 53.2183C14.7672 59.1174 7.26439 60.396 5.40928 60.396L5.40928 70.2393C13.3845 70.2393 24.6148 64.9601 24.6148 53.2183L24.6148 50.1756C44.0068 48.0474 53.4557 51.0381 55.8352 54.64C57.9287 57.8127 55.5882 63.2697 53.2563 67.2876L61.769 72.2288C67.1956 62.8839 67.9628 55.1384 64.0532 49.2134C59.6495 42.5428 49.8452 39.331 34.8439 39.6171L34.8396 39.6257Z"/><path id="Vector" fill="#FFF" fill-rule="evenodd" d="M36.8463 38.5996L66.574 23.3981L67.4643 22.9428L67.009 22.0524L63.4379 15.069L62.9826 14.1787L62.0923 14.634L25.6105 33.289L24.6105 33.8004L24.6105 19.432L14.7672 19.432L14.7672 38.8326L0.890366 45.9278L0 46.383L0.455297 47.2734L4.48173 55.1471L13.7672 50.4007L14.7672 49.8895L14.7672 53.2183C14.7672 59.1174 7.26439 60.396 5.40928 60.396L5.40928 70.2393C5.73744 70.2393 6.07111 70.2304 6.40928 70.2124C14.2897 69.7939 24.6148 64.4769 24.6148 53.2183L24.6148 50.1756C44.0068 48.0474 53.4557 51.0381 55.8352 54.64C57.9287 57.8127 55.5882 63.2697 53.2563 67.2876L61.769 72.2288L61.7796 72.2106C61.9451 71.9253 62.1062 71.6416 62.263 71.3593C67.2389 62.4027 67.8409 54.9537 64.0532 49.2134C59.8727 42.8809 50.8253 39.6655 37.0853 39.6005C36.3558 39.5971 35.613 39.6025 34.857 39.6168L36.8463 38.5996ZM34.6072 38.6214L66.1187 22.5077L62.5475 15.5243L23.6105 35.4349L23.6105 20.432L15.7672 20.432L15.7672 39.4444L1.34566 46.8181L4.91685 53.8016L15.7672 48.2553L15.7672 53.2183Q15.7672 54.625 15.2804 55.836Q14.9389 56.6858 14.3577 57.4393Q13.2174 58.9175 11.2322 59.9132Q9.71281 60.6752 7.86885 61.0807Q7.07682 61.2549 6.40928 61.3328L6.40928 69.2124Q8.90654 69.0783 11.4769 68.2764Q14.7985 67.24 17.4117 65.3253Q20.086 63.3659 21.6357 60.7422Q21.7503 60.5481 21.8588 60.3504Q22.2205 59.691 22.5078 59.0006Q23.6148 56.3398 23.6148 53.2183L23.6148 49.2793L24.5057 49.1815Q38.1215 47.6873 46.785 49.2754Q54.4135 50.6738 56.6696 54.0887Q56.7348 54.1875 56.7956 54.2888Q59.2947 58.4464 54.6141 66.9195L61.3982 70.8573Q67.4637 59.9386 64.5948 52.4366Q64.0612 51.0412 63.2185 49.7641Q56.9373 40.2495 35.1062 40.6125L32.5818 41.9034L34.2202 38.6288L34.6072 38.6214Z"/><g id="Group"><path id="Vector" fill="#FFF" fill-rule="nonzero" d="M199.607 52.0133L148.596 52.0133L148.596 42.17L199.607 42.17C201.523 42.17 203.079 40.6139 203.079 38.6982L203.079 29.1192L148.596 29.1192L148.596 19.2759L212.927 19.2759L212.927 38.6982C212.927 46.0406 206.954 52.0133 199.611 52.0133L199.607 52.0133Z"/><path id="Vector" fill="#FFF" fill-rule="evenodd" d="M203.079 30.1192L203.079 38.6982C203.079 40.6139 201.523 42.17 199.607 42.17L148.596 42.17L148.596 52.0133L199.611 52.0133C206.954 52.0133 212.927 46.0406 212.927 38.6982L212.927 19.2759L148.596 19.2759L148.596 29.1192L203.079 29.1192L203.079 30.1192ZM149.596 28.1192L204.079 28.1192L204.079 38.6982Q204.079 39.6201 203.754 40.4079Q203.426 41.2019 202.768 41.8596Q202.111 42.5173 201.317 42.8449Q200.529 43.17 199.607 43.17L149.596 43.17L149.596 51.0133L199.611 51.0133Q200.976 51.0133 202.277 50.7248Q203.361 50.4847 204.399 50.0446Q205.417 49.6134 206.328 49.0187Q207.395 48.3224 208.315 47.402Q209.236 46.4815 209.932 45.4148Q210.527 44.5038 210.958 43.4861Q211.398 42.4475 211.638 41.3645Q211.927 40.0633 211.927 38.6982L211.927 20.2759L149.596 20.2759L149.596 28.1192Z"/><path id="Vector" fill="#FFF" fill-rule="nonzero" d="M170.554 72.5061L166.779 70.1309C163.927 68.3364 161.846 65.6188 160.927 62.4764C160.442 60.812 160.19 59.0956 160.19 57.3748L160.19 24.8281L170.034 24.8281L170.034 57.3748C170.034 58.1594 170.146 58.9439 170.372 59.7111C170.615 60.5433 171.2 61.2888 172.019 61.8002L175.794 64.1755L170.554 72.5061Z"/><path id="Vector" fill="#FFF" fill-rule="evenodd" d="M170.24 71.1271L167.311 69.2844Q166.034 68.4809 164.999 67.4373Q164.423 66.8566 163.922 66.2016Q163.065 65.0804 162.494 63.8286Q162.133 63.0382 161.887 62.1957Q161.343 60.3304 161.224 58.4383Q161.19 57.9076 161.19 57.3748L161.19 25.8281L169.034 25.8281L169.034 57.3748Q169.034 57.8684 169.086 58.3564Q169.174 59.1827 169.412 59.9929Q169.578 60.5609 169.873 61.0508Q170.441 61.9942 171.489 62.6485L174.415 64.4894L170.24 71.1271ZM171.086 71.6596L170.554 72.5061L169.707 71.9736L166.779 70.1309C163.927 68.3364 161.846 65.6188 160.927 62.4764C160.442 60.812 160.19 59.0956 160.19 57.3748L160.19 24.8281L170.034 24.8281L170.034 57.3748C170.034 58.1594 170.146 58.9439 170.372 59.7111C170.615 60.5433 171.2 61.2888 172.019 61.8002L175.794 64.1755L171.086 71.6596Z"/></g><g id="Group"><path id="Vector" fill="#FFF" fill-rule="nonzero" d="M127.271 52.0436L87.9625 52.0436L87.9625 42.2002L127.271 42.2002C129.187 42.2002 130.743 40.6442 130.743 38.7284L130.743 29.1495L76.2598 29.1495L76.2598 19.3062L140.59 19.3062L140.59 38.7284C140.59 46.0708 134.618 52.0436 127.275 52.0436L127.271 52.0436Z"/><path id="Vector" fill="#FFF" fill-rule="evenodd" d="M130.743 30.1495L130.743 38.7284C130.743 40.6442 129.187 42.2002 127.271 42.2002L87.9625 42.2002L87.9625 52.0436L127.275 52.0436C134.618 52.0436 140.59 46.0708 140.59 38.7284L140.59 19.3062L76.2598 19.3062L76.2598 29.1495L130.743 29.1495L130.743 30.1495ZM77.2598 28.1495L131.743 28.1495L131.743 38.7284Q131.743 39.6504 131.418 40.4382Q131.09 41.2321 130.432 41.8899Q129.775 42.5476 128.981 42.8752Q128.193 43.2002 127.271 43.2002L88.9625 43.2002L88.9625 51.0436L127.275 51.0436Q128.64 51.0436 129.941 50.7551Q131.024 50.515 132.063 50.0748Q133.081 49.6437 133.992 49.049Q135.059 48.3527 135.979 47.4323Q136.9 46.5118 137.596 45.445Q138.19 44.534 138.622 43.5164Q139.062 42.4778 139.302 41.3948Q139.59 40.0936 139.59 38.7284L139.59 20.3062L77.2598 20.3062L77.2598 28.1495Z"/><path id="Vector" fill="#FFF" fill-rule="nonzero" d="M87.3167 72.5364L91.0919 70.1611C93.9439 68.3667 96.0244 65.6491 96.9433 62.5067C97.4287 60.8423 97.6801 59.1259 97.6801 57.4051L97.6801 24.8584L87.8368 24.8584L87.8368 57.4051C87.8368 58.1896 87.7241 58.9742 87.4987 59.7413C87.256 60.5735 86.6708 61.319 85.8516 61.8305L82.0764 64.2057L87.3167 72.5364Z"/><path id="Vector" fill="#FFF" fill-rule="evenodd" d="M92.8717 67.4673Q91.8366 68.5111 90.5593 69.3147L87.6306 71.1574L83.4553 64.5197L86.3812 62.6787Q87.4292 62.0245 87.9974 61.0812Q88.2925 60.5912 88.4582 60.0232Q88.6964 59.2124 88.7847 58.3855Q88.8368 57.8981 88.8368 57.4051L88.8368 25.8584L96.6801 25.8584L96.6801 57.4051Q96.6801 57.9381 96.6467 58.4689Q96.5275 60.3609 95.9835 62.226Q95.7371 63.0684 95.3766 63.8588Q94.8056 65.1107 93.9482 66.2319Q93.4474 66.8868 92.8717 67.4673ZM96.6801 24.8584L97.6801 24.8584L97.6801 57.4051C97.6801 59.1259 97.4287 60.8423 96.9433 62.5067C96.0244 65.6491 93.9439 68.3667 91.0919 70.1611L88.1631 72.0038L87.3167 72.5364L86.7842 71.6899L82.0764 64.2057L85.8516 61.8305C86.6708 61.319 87.256 60.5735 87.4987 59.7413C87.7241 58.9742 87.8368 58.1896 87.8368 57.4051L87.8368 24.8584L96.6801 24.8584Z"/></g><path id="Vector" fill="#FFF" fill-rule="nonzero" d="M226.155 71.3359L226.155 61.4926C228.01 61.4926 235.513 60.214 235.513 54.3149L235.513 20.5286L245.356 20.5286L245.356 54.3149C245.356 66.0524 234.126 71.3359 226.151 71.3359L226.155 71.3359Z"/><path id="Vector" fill="#FFF" fill-rule="evenodd" d="M227.155 71.3088C235.035 70.8883 245.356 65.5673 245.356 54.3149L245.356 20.5286L235.513 20.5286L235.513 54.3149C235.513 60.214 228.01 61.4926 226.155 61.4926L226.155 71.3359C226.483 71.3359 226.817 71.3268 227.155 71.3088ZM227.155 70.3088Q229.65 70.1741 232.218 69.3724Q235.54 68.3356 238.153 66.4204Q240.829 64.4592 242.38 61.8332Q242.493 61.6409 242.6 61.4451Q242.964 60.782 243.253 60.0876Q244.356 57.4305 244.356 54.3149L244.356 21.5286L236.513 21.5286L236.513 54.3149Q236.513 55.7215 236.026 56.9325Q235.685 57.7824 235.104 58.5359Q233.963 60.0142 231.978 61.0098Q230.459 61.7718 228.615 62.1773Q227.823 62.3515 227.155 62.4295L227.155 70.3088Z"/><path id="Vector" fill="#FFF" fill-rule="nonzero" d="M225.561 54.9996L226.753 53.5346C227.078 53.1359 227.485 52.8195 227.928 52.6244C228.977 52.1606 230.06 51.9266 231.152 51.9266L271.8 51.9266L271.8 42.0833L231.152 42.0833C228.682 42.0833 226.259 42.599 223.949 43.6219C222.094 44.4411 220.42 45.7241 219.12 47.3235L217.928 48.7885L225.565 54.9996L225.561 54.9996Z"/><path id="Vector" fill="#FFF" fill-rule="evenodd" d="M226.194 54.2218L226.753 53.5346C227.078 53.1359 227.485 52.8195 227.928 52.6244C228.977 52.1606 230.06 51.9266 231.152 51.9266L271.8 51.9266L271.8 42.0833L231.152 42.0833C228.682 42.0833 226.259 42.599 223.949 43.6219C222.094 44.4411 220.42 45.7241 219.12 47.3235L218.559 48.0128L217.928 48.7885L218.704 49.4195L224.787 54.3666L225.561 54.9961L225.563 54.9975L225.561 54.9996L225.565 54.9996L225.563 54.9975L225.565 54.9943L226.194 54.2218ZM219.335 48.6438L225.418 53.5909L225.977 52.9035L225.978 52.9028Q226.454 52.3182 227.062 51.9499Q227.284 51.8152 227.524 51.7095Q228.833 51.1305 230.191 50.9797Q230.668 50.9266 231.152 50.9266L270.8 50.9266L270.8 43.0833L231.152 43.0833Q229.809 43.0833 228.499 43.2954Q226.381 43.6385 224.354 44.5363Q223.259 45.0195 222.301 45.6957Q220.966 46.6377 219.896 47.9543L219.335 48.6438Z"/><path id="Vector" fill-rule="nonzero" stroke="#FFF" stroke-width="9.843" d="M0 1.46312C39.6246 -1.83391 65.8823 -1.45423 54.613 23.2516" transform="matrix(1,0,0,-1,225.76,25.2942)"/></g></svg>